<svg xmlns="http://www.w3.org/2000/svg" width="56" height="56" viewBox="0 0 56 56">
  <!-- Background with glass effect -->
  <rect width="56" height="56" rx="12" fill="rgba(255, 255, 255, 0.1)" />
  
  <!-- Chart icon -->
  <g transform="translate(16, 16)">
    <path 
      stroke="white" 
      fill="none" 
      stroke-width="2" 
      stroke-linecap="round" 
      stroke-linejoin="round" 
      d="M9 19v-6a2 2 0 00-2-2H5a2 2 0 00-2 2v6a2 2 0 002 2h2a2 2 0 002-2zm0 0V9a2 2 0 012-2h2a2 2 0 012 2v10m-6 0a2 2 0 002 2h2a2 2 0 002-2m0 0V5a2 2 0 012-2h2a2 2 0 012 2v14a2 2 0 01-2 2h-2a2 2 0 01-2-2z"
    />
  </g>
  
  <!-- Glass effect overlay -->
  <rect width="56" height="56" rx="12" fill="white" fill-opacity="0.05" />
</svg>